<svg class="lds-pies" width="100%" height="100%" xmlns="http://www.w3.org/2000/svg" xmlns:xlink="http://www.w3.org/1999/xlink" viewBox="0 0 100 100" preserveAspectRatio="xMidYMid"><g transform="translate(50 50)"><g transform="scale(0.6 0.6)">
<path d="M0 0L0 -40A40 40 0 0 1 34.64101615137754 -20.000000000000004" transform="rotate(0 0 0)" stroke="none" fill="#eca611"></path>
<animateTransform attributeName="transform" type="scale" values="1;0.5" keyTimes="0;1" dur="1s" repeatCount="indefinite" begin="-0.8333333333333334s"></animateTransform>
</g><g transform="scale(0.683333 0.683333)">
<path d="M0 0L0 -40A40 40 0 0 1 34.64101615137754 -20.000000000000004" transform="rotate(60 0 0)" stroke="none" fill="#fdc823"></path>
<animateTransform attributeName="transform" type="scale" values="1;0.5" keyTimes="0;1" dur="1s" repeatCount="indefinite" begin="-0.6666666666666666s"></animateTransform>
</g><g transform="scale(0.766667 0.766667)">
<path d="M0 0L0 -40A40 40 0 0 1 34.64101615137754 -20.000000000000004" transform="rotate(120 0 0)" stroke="none" fill="#fff36a"></path>
<animateTransform attributeName="transform" type="scale" values="1;0.5" keyTimes="0;1" dur="1s" repeatCount="indefinite" begin="-0.5s"></animateTransform>
</g><g transform="scale(0.85 0.85)">
<path d="M0 0L0 -40A40 40 0 0 1 34.64101615137754 -20.000000000000004" transform="rotate(180 0 0)" stroke="none" fill="#fffeaf"></path>
<animateTransform attributeName="transform" type="scale" values="1;0.5" keyTimes="0;1" dur="1s" repeatCount="indefinite" begin="-0.3333333333333333s"></animateTransform>
</g><g transform="scale(0.933333 0.933333)">
<path d="M0 0L0 -40A40 40 0 0 1 34.64101615137754 -20.000000000000004" transform="rotate(240 0 0)" stroke="none" fill="#eca611"></path>
<animateTransform attributeName="transform" type="scale" values="1;0.5" keyTimes="0;1" dur="1s" repeatCount="indefinite" begin="-0.16666666666666666s"></animateTransform>
</g><g transform="scale(0.516667 0.516667)">
<path d="M0 0L0 -40A40 40 0 0 1 34.64101615137754 -20.000000000000004" transform="rotate(300 0 0)" stroke="none" fill="#fdc823"></path>
<animateTransform attributeName="transform" type="scale" values="1;0.5" keyTimes="0;1" dur="1s" repeatCount="indefinite" begin="0s"></animateTransform>
</g></g></svg>